<svg xmlns="http://www.w3.org/2000/svg" width="1920" height="1080">
    <path d="M-262,-326L322,-262L865,-320Z" fill="#7fb8f4" stroke="#7fb8f4" stroke-width="1.51"/>
    <path d="M583,1361L179,1399L921,1369Z" fill="#9abbf0" stroke="#9abbf0" stroke-width="1.51"/>
    <path d="M-262,-326L865,-320L1247,-322Z" fill="#95c2f5" stroke="#95c2f5" stroke-width="1.51"/>
    <path d="M921,1369L179,1399L1360,1390Z" fill="#abc4f1" stroke="#abc4f1" stroke-width="1.51"/>
    <path d="M1247,-322L1696,-206L1967,-296Z" fill="#85b5f1" stroke="#85b5f1" stroke-width="1.51"/>
    <path d="M2152,895L2116,1147L2183,1274Z" fill="#82a9ea" stroke="#82a9ea" stroke-width="1.51"/>
    <path d="M2025,840L2152,895L2241,622Z" fill="#a2bdef" stroke="#a2bdef" stroke-width="1.51"/>
    <path d="M2052,583L2025,840L2241,622Z" fill="#aec6f1" stroke="#aec6f1" stroke-width="1.51"/>
    <path d="M2201,404L2052,583L2241,622Z" fill="#b7ccf3" stroke="#b7ccf3" stroke-width="1.51"/>
    <path d="M2152,895L2183,1274L2241,622Z" fill="#91b3ec" stroke="#91b3ec" stroke-width="1.51"/>
    <path d="M2136,28L2018,32L2256,232Z" fill="#8cb5ef" stroke="#8cb5ef" stroke-width="1.51"/>
    <path d="M2018,32L1905,153L2256,232Z" fill="#96baf0" stroke="#96baf0" stroke-width="1.51"/>
    <path d="M1905,153L2201,404L2256,232Z" fill="#9fbef0" stroke="#9fbef0" stroke-width="1.51"/>
    <path d="M2223,-219L2136,28L2256,232Z" fill="#7daeed" stroke="#7daeed" stroke-width="1.51"/>
    <path d="M2201,404L2241,622L2256,232Z" fill="#a8c2f1" stroke="#a8c2f1" stroke-width="1.51"/>
    <path d="M1247,-322L1586,-202L1696,-206Z" fill="#91bcf3" stroke="#91bcf3" stroke-width="1.51"/>
    <path d="M2018,32L2136,28L2223,-219Z" fill="#7baded" stroke="#7baded" stroke-width="1.51"/>
    <path d="M1905,153L1958,475L2201,404Z" fill="#adc6f3" stroke="#adc6f3" stroke-width="1.51"/>
    <path d="M1967,-296L2018,32L2223,-219Z" fill="#72aaed" stroke="#72aaed" stroke-width="1.51"/>
    <path d="M2018,1149L2116,1147L2152,895Z" fill="#8aafeb" stroke="#8aafeb" stroke-width="1.51"/>
    <path d="M1958,475L2052,583L2201,404Z" fill="#b8cdf3" stroke="#b8cdf3" stroke-width="1.51"/>
    <path d="M2025,840L2018,1149L2152,895Z" fill="#96b6ed" stroke="#96b6ed" stroke-width="1.51"/>
    <path d="M2116,1147L2018,1149L2183,1274Z" fill="#7ca6e9" stroke="#7ca6e9" stroke-width="1.51"/>
    <path d="M2018,1149L1927,1373L2183,1274Z" fill="#78a5e8" stroke="#78a5e8" stroke-width="1.51"/>
    <path d="M1905,153L1812,384L1958,475Z" fill="#b5ccf4" stroke="#b5ccf4" stroke-width="1.51"/>
    <path d="M1810,923L2018,1149L2025,840Z" fill="#9dbaee" stroke="#9dbaee" stroke-width="1.51"/>
    <path d="M1967,-296L1794,17L2018,32Z" fill="#86b4ef" stroke="#86b4ef" stroke-width="1.51"/>
    <path d="M1720,625L2025,840L2052,583Z" fill="#b9ccf3" stroke="#b9ccf3" stroke-width="1.51"/>
    <path d="M1958,475L1720,625L2052,583Z" fill="#c5d5f5" stroke="#c5d5f5" stroke-width="1.51"/>
    <path d="M1696,-206L1794,17L1967,-296Z" fill="#85b4f0" stroke="#85b4f0" stroke-width="1.51"/>
    <path d="M1741,1110L1927,1373L2018,1149Z" fill="#88adeb" stroke="#88adeb" stroke-width="1.51"/>
    <path d="M1810,923L1741,1110L2018,1149Z" fill="#9bb8ee" stroke="#9bb8ee" stroke-width="1.51"/>
    <path d="M1720,625L1810,923L2025,840Z" fill="#b3c9f2" stroke="#b3c9f2" stroke-width="1.51"/>
    <path d="M1794,17L1905,153L2018,32Z" fill="#98bcf1" stroke="#98bcf1" stroke-width="1.51"/>
    <path d="M1746,282L1812,384L1905,153Z" fill="#b3cbf4" stroke="#b3cbf4" stroke-width="1.51"/>
    <path d="M1812,384L1720,625L1958,475Z" fill="#c8d7f6" stroke="#c8d7f6" stroke-width="1.51"/>
    <path d="M1741,1110L1669,1396L1927,1373Z" fill="#88adeb" stroke="#88adeb" stroke-width="1.51"/>
    <path d="M1794,17L1746,282L1905,153Z" fill="#a7c5f3" stroke="#a7c5f3" stroke-width="1.51"/>
    <path d="M1571,1271L1669,1396L1741,1110Z" fill="#94b4ed" stroke="#94b4ed" stroke-width="1.51"/>
    <path d="M1696,-206L1605,-28L1794,17Z" fill="#97bdf2" stroke="#97bdf2" stroke-width="1.51"/>
    <path d="M1577,174L1746,282L1794,17Z" fill="#afc9f5" stroke="#afc9f5" stroke-width="1.51"/>
    <path d="M1605,-28L1577,174L1794,17Z" fill="#a7c6f4" stroke="#a7c6f4" stroke-width="1.51"/>
    <path d="M1720,625L1561,637L1810,923Z" fill="#c3d3f5" stroke="#c3d3f5" stroke-width="1.51"/>
    <path d="M1561,637L1450,891L1810,923Z" fill="#c1d1f5" stroke="#c1d1f5" stroke-width="1.51"/>
    <path d="M1520,1102L1741,1110L1810,923Z" fill="#a7c0f0" stroke="#a7c0f0" stroke-width="1.51"/>
    <path d="M1746,282L1570,447L1812,384Z" fill="#c4d5f6" stroke="#c4d5f6" stroke-width="1.51"/>
    <path d="M1570,447L1720,625L1812,384Z" fill="#cfdcf7" stroke="#cfdcf7" stroke-width="1.51"/>
    <path d="M1450,891L1520,1102L1810,923Z" fill="#b3c8f2" stroke="#b3c8f2" stroke-width="1.51"/>
    <path d="M1570,447L1561,637L1720,625Z" fill="#d6e1f8" stroke="#d6e1f8" stroke-width="1.51"/>
    <path d="M1520,1102L1571,1271L1741,1110Z" fill="#a0bcef" stroke="#a0bcef" stroke-width="1.51"/>
    <path d="M1577,174L1570,447L1746,282Z" fill="#c2d5f6" stroke="#c2d5f6" stroke-width="1.51"/>
    <path d="M1586,-202L1605,-28L1696,-206Z" fill="#94bcf2" stroke="#94bcf2" stroke-width="1.51"/>
    <path d="M1571,1271L1360,1390L1669,1396Z" fill="#93b4ec" stroke="#93b4ec" stroke-width="1.51"/>
    <path d="M1373,177L1570,447L1577,174Z" fill="#c6d8f7" stroke="#c6d8f7" stroke-width="1.51"/>
    <path d="M1377,-47L1373,177L1577,174Z" fill="#b9d1f6" stroke="#b9d1f6" stroke-width="1.51"/>
    <path d="M1586,-202L1377,-47L1605,-28Z" fill="#a1c3f4" stroke="#a1c3f4" stroke-width="1.51"/>
    <path d="M1377,-47L1577,174L1605,-28Z" fill="#adcaf5" stroke="#adcaf5" stroke-width="1.51"/>
    <path d="M1289,618L1450,891L1561,637Z" fill="#d5dff8" stroke="#d5dff8" stroke-width="1.51"/>
    <path d="M1373,177L1236,368L1570,447Z" fill="#d3e0f9" stroke="#d3e0f9" stroke-width="1.51"/>
    <path d="M1289,618L1561,637L1570,447Z" fill="#dfe7fa" stroke="#dfe7fa" stroke-width="1.51"/>
    <path d="M1247,-322L1377,-47L1586,-202Z" fill="#9ec3f4" stroke="#9ec3f4" stroke-width="1.51"/>
    <path d="M322,-262L598,-257L865,-320Z" fill="#98c3f6" stroke="#98c3f6" stroke-width="1.51"/>
    <path d="M1520,1102L1351,1141L1571,1271Z" fill="#a8c0f0" stroke="#a8c0f0" stroke-width="1.51"/>
    <path d="M1236,368L1289,618L1570,447Z" fill="#e2eafb" stroke="#e2eafb" stroke-width="1.51"/>
    <path d="M1351,1141L1360,1390L1571,1271Z" fill="#a2bdef" stroke="#a2bdef" stroke-width="1.51"/>
    <path d="M1450,891L1351,1141L1520,1102Z" fill="#b6caf2" stroke="#b6caf2" stroke-width="1.51"/>
    <path d="M1233,858L1351,1141L1450,891Z" fill="#c3d3f5" stroke="#c3d3f5" stroke-width="1.51"/>
    <path d="M1289,618L1233,858L1450,891Z" fill="#d5dff8" stroke="#d5dff8" stroke-width="1.51"/>
    <path d="M1233,858L1022,1064L1351,1141Z" fill="#c7d6f5" stroke="#c7d6f5" stroke-width="1.51"/>
    <path d="M1351,1141L1020,1311L1360,1390Z" fill="#acc3f1" stroke="#acc3f1" stroke-width="1.51"/>
    <path d="M1020,1311L921,1369L1360,1390Z" fill="#aec5f1" stroke="#aec5f1" stroke-width="1.51"/>
    <path d="M1011,-8L1094,248L1373,177Z" fill="#cedffa" stroke="#cedffa" stroke-width="1.51"/>
    <path d="M1094,248L1236,368L1373,177Z" fill="#d6e3fa" stroke="#d6e3fa" stroke-width="1.51"/>
    <path d="M1011,-8L1373,177L1377,-47Z" fill="#bfd6f8" stroke="#bfd6f8" stroke-width="1.51"/>
    <path d="M1113,-210L1011,-8L1377,-47Z" fill="#b8d3f8" stroke="#b8d3f8" stroke-width="1.51"/>
    <path d="M1247,-322L1113,-210L1377,-47Z" fill="#a8c9f6" stroke="#a8c9f6" stroke-width="1.51"/>
    <path d="M1022,1064L1020,1311L1351,1141Z" fill="#bdcff4" stroke="#bdcff4" stroke-width="1.51"/>
    <path d="M1037,628L1025,801L1233,858Z" fill="#e4eafa" stroke="#e4eafa" stroke-width="1.51"/>
    <path d="M1037,628L1233,858L1289,618Z" fill="#e4eafa" stroke="#e4eafa" stroke-width="1.51"/>
    <path d="M1236,368L1101,394L1289,618Z" fill="#e9effc" stroke="#e9effc" stroke-width="1.51"/>
    <path d="M1101,394L1037,628L1289,618Z" fill="#f4f6fd" stroke="#f4f6fd" stroke-width="1.51"/>
    <path d="M1025,801L1022,1064L1233,858Z" fill="#d7e1f8" stroke="#d7e1f8" stroke-width="1.51"/>
    <path d="M1094,248L1101,394L1236,368Z" fill="#e2ebfc" stroke="#e2ebfc" stroke-width="1.51"/>
    <path d="M865,-320L1113,-210L1247,-322Z" fill="#aacbf7" stroke="#aacbf7" stroke-width="1.51"/>
    <path d="M-262,-326L246,-252L322,-262Z" fill="#71b1f3" stroke="#71b1f3" stroke-width="1.51"/>
    <path d="M898,1101L1020,1311L1022,1064Z" fill="#c8d6f6" stroke="#c8d6f6" stroke-width="1.51"/>
    <path d="M836,930L1022,1064L1025,801Z" fill="#dde6f9" stroke="#dde6f9" stroke-width="1.51"/>
    <path d="M1011,-8L845,239L1094,248Z" fill="#dae8fc" stroke="#dae8fc" stroke-width="1.51"/>
    <path d="M809,507L1037,628L1101,394Z" fill="#fbfcff" stroke="#fbfcff" stroke-width="1.51"/>
    <path d="M1094,248L845,239L1101,394Z" fill="#e5eefd" stroke="#e5eefd" stroke-width="1.51"/>
    <path d="M865,-320L1011,-8L1113,-210Z" fill="#b9d5f8" stroke="#b9d5f8" stroke-width="1.51"/>
    <path d="M845,239L809,507L1101,394Z" fill="#eef4fe" stroke="#eef4fe" stroke-width="1.51"/>
    <path d="M865,-320L776,-62L1011,-8Z" fill="#bbd6f9" stroke="#bbd6f9" stroke-width="1.51"/>
    <path d="M898,1101L921,1369L1020,1311Z" fill="#bfd0f4" stroke="#bfd0f4" stroke-width="1.51"/>
    <path d="M836,930L898,1101L1022,1064Z" fill="#d1def8" stroke="#d1def8" stroke-width="1.51"/>
    <path d="M777,596L1025,801L1037,628Z" fill="#f3f5fd" stroke="#f3f5fd" stroke-width="1.51"/>
    <path d="M809,507L777,596L1037,628Z" fill="#f7f9fe" stroke="#f7f9fe" stroke-width="1.51"/>
    <path d="M776,-62L845,239L1011,-8Z" fill="#cde0fb" stroke="#cde0fb" stroke-width="1.51"/>
    <path d="M777,596L836,930L1025,801Z" fill="#e6edfb" stroke="#e6edfb" stroke-width="1.51"/>
    <path d="M433,1339L179,1399L583,1361Z" fill="#8fb5ef" stroke="#8fb5ef" stroke-width="1.51"/>
    <path d="M777,596L580,831L836,930Z" fill="#dce6fb" stroke="#dce6fb" stroke-width="1.51"/>
    <path d="M776,-62L638,180L845,239Z" fill="#cbdffb" stroke="#cbdffb" stroke-width="1.51"/>
    <path d="M676,428L809,507L845,239Z" fill="#e7effd" stroke="#e7effd" stroke-width="1.51"/>
    <path d="M594,1094L583,1361L898,1101Z" fill="#b5cbf4" stroke="#b5cbf4" stroke-width="1.51"/>
    <path d="M898,1101L583,1361L921,1369Z" fill="#b4caf3" stroke="#b4caf3" stroke-width="1.51"/>
    <path d="M598,-257L776,-62L865,-320Z" fill="#aaccf7" stroke="#aaccf7" stroke-width="1.51"/>
    <path d="M836,930L594,1094L898,1101Z" fill="#c8d8f7" stroke="#c8d8f7" stroke-width="1.51"/>
    <path d="M598,-257L626,-102L776,-62Z" fill="#accdf8" stroke="#accdf8" stroke-width="1.51"/>
    <path d="M565,715L580,831L777,596Z" fill="#dde8fb" stroke="#dde8fb" stroke-width="1.51"/>
    <path d="M638,180L676,428L845,239Z" fill="#d9e7fc" stroke="#d9e7fc" stroke-width="1.51"/>
    <path d="M580,831L594,1094L836,930Z" fill="#c9d9f7" stroke="#c9d9f7" stroke-width="1.51"/>
    <path d="M626,-102L638,180L776,-62Z" fill="#bbd6f9" stroke="#bbd6f9" stroke-width="1.51"/>
    <path d="M676,428L777,596L809,507Z" fill="#f0f5fe" stroke="#f0f5fe" stroke-width="1.51"/>
    <path d="M676,428L565,715L777,596Z" fill="#eaf1fd" stroke="#eaf1fd" stroke-width="1.51"/>
    <path d="M580,831L473,863L594,1094Z" fill="#c3d6f7" stroke="#c3d6f7" stroke-width="1.51"/>
    <path d="M333,54L356,126L626,-102Z" fill="#adcef8" stroke="#adcef8" stroke-width="1.51"/>
    <path d="M626,-102L356,126L638,180Z" fill="#b8d4f9" stroke="#b8d4f9" stroke-width="1.51"/>
    <path d="M437,590L565,715L676,428Z" fill="#e3edfd" stroke="#e3edfd" stroke-width="1.51"/>
    <path d="M477,370L437,590L676,428Z" fill="#deeafc" stroke="#deeafc" stroke-width="1.51"/>
    <path d="M638,180L477,370L676,428Z" fill="#d5e4fc" stroke="#d5e4fc" stroke-width="1.51"/>
    <path d="M433,1339L583,1361L594,1094Z" fill="#a3c1f1" stroke="#a3c1f1" stroke-width="1.51"/>
    <path d="M356,126L477,370L638,180Z" fill="#c5dbfa" stroke="#c5dbfa" stroke-width="1.51"/>
    <path d="M473,863L364,1072L594,1094Z" fill="#b7cef6" stroke="#b7cef6" stroke-width="1.51"/>
    <path d="M598,-257L322,-262L626,-102Z" fill="#9ac4f6" stroke="#9ac4f6" stroke-width="1.51"/>
    <path d="M322,-262L333,54L626,-102Z" fill="#9fc6f6" stroke="#9fc6f6" stroke-width="1.51"/>
    <path d="M364,1072L433,1339L594,1094Z" fill="#a7c4f2" stroke="#a7c4f2" stroke-width="1.51"/>
    <path d="M565,715L473,863L580,831Z" fill="#cedef8" stroke="#cedef8" stroke-width="1.51"/>
    <path d="M437,590L473,863L565,715Z" fill="#d2e1fa" stroke="#d2e1fa" stroke-width="1.51"/>
    <path d="M-262,-326L-83,-220L246,-252Z" fill="#66adf2" stroke="#66adf2" stroke-width="1.51"/>
    <path d="M109,580L224,953L437,590Z" fill="#c4d9f9" stroke="#c4d9f9" stroke-width="1.51"/>
    <path d="M437,590L224,953L473,863Z" fill="#c4d8f8" stroke="#c4d8f8" stroke-width="1.51"/>
    <path d="M224,953L364,1072L473,863Z" fill="#b4cdf5" stroke="#b4cdf5" stroke-width="1.51"/>
    <path d="M140,396L437,590L477,370Z" fill="#d1e3fb" stroke="#d1e3fb" stroke-width="1.51"/>
    <path d="M356,126L140,396L477,370Z" fill="#c1d9fa" stroke="#c1d9fa" stroke-width="1.51"/>
    <path d="M322,-262L246,-252L333,54Z" fill="#90bff5" stroke="#90bff5" stroke-width="1.51"/>
    <path d="M105,221L140,396L356,126Z" fill="#b4d2f8" stroke="#b4d2f8" stroke-width="1.51"/>
    <path d="M109,1121L179,1399L364,1072Z" fill="#93b9f0" stroke="#93b9f0" stroke-width="1.51"/>
    <path d="M364,1072L179,1399L433,1339Z" fill="#94b9f0" stroke="#94b9f0" stroke-width="1.51"/>
    <path d="M140,396L109,580L437,590Z" fill="#d0e2fb" stroke="#d0e2fb" stroke-width="1.51"/>
    <path d="M109,580L17,880L224,953Z" fill="#b2cef6" stroke="#b2cef6" stroke-width="1.51"/>
    <path d="M246,-252L97,-84L333,54Z" fill="#91c0f6" stroke="#91c0f6" stroke-width="1.51"/>
    <path d="M224,953L109,1121L364,1072Z" fill="#a3c3f3" stroke="#a3c3f3" stroke-width="1.51"/>
    <path d="M333,54L105,221L356,126Z" fill="#accdf8" stroke="#accdf8" stroke-width="1.51"/>
    <path d="M97,-84L105,221L333,54Z" fill="#9fc6f7" stroke="#9fc6f7" stroke-width="1.51"/>
    <path d="M22,624L17,880L109,580Z" fill="#b8d3f7" stroke="#b8d3f7" stroke-width="1.51"/>
    <path d="M-69,1288L-228,1305L179,1399Z" fill="#70a8ec" stroke="#70a8ec" stroke-width="1.51"/>
    <path d="M-83,-220L97,-84L246,-252Z" fill="#7bb6f4" stroke="#7bb6f4" stroke-width="1.51"/>
    <path d="M109,1121L-69,1288L179,1399Z" fill="#81b0ef" stroke="#81b0ef" stroke-width="1.51"/>
    <path d="M17,880L109,1121L224,953Z" fill="#a1c3f3" stroke="#a1c3f3" stroke-width="1.51"/>
    <path d="M97,-84L-89,28L105,221Z" fill="#94c1f6" stroke="#94c1f6" stroke-width="1.51"/>
    <path d="M17,880L-38,1077L109,1121Z" fill="#97bdf2" stroke="#97bdf2" stroke-width="1.51"/>
    <path d="M105,221L28,267L140,396Z" fill="#b1d0f8" stroke="#b1d0f8" stroke-width="1.51"/>
    <path d="M-16,468L109,580L140,396Z" fill="#c2dafa" stroke="#c2dafa" stroke-width="1.51"/>
    <path d="M28,267L-16,468L140,396Z" fill="#b6d3f8" stroke="#b6d3f8" stroke-width="1.51"/>
    <path d="M-89,28L28,267L105,221Z" fill="#9fc6f7" stroke="#9fc6f7" stroke-width="1.51"/>
    <path d="M-38,1077L-69,1288L109,1121Z" fill="#87b4f0" stroke="#87b4f0" stroke-width="1.51"/>
    <path d="M-16,468L22,624L109,580Z" fill="#c4dbf9" stroke="#c4dbf9" stroke-width="1.51"/>
    <path d="M-83,-220L-89,28L97,-84Z" fill="#7eb7f4" stroke="#7eb7f4" stroke-width="1.51"/>
    <path d="M-227,597L-329,880L17,880Z" fill="#a0c5f5" stroke="#a0c5f5" stroke-width="1.51"/>
    <path d="M-227,597L17,880L22,624Z" fill="#b0cef7" stroke="#b0cef7" stroke-width="1.51"/>
    <path d="M-16,468L-227,597L22,624Z" fill="#bcd6f9" stroke="#bcd6f9" stroke-width="1.51"/>
    <path d="M-241,275L-16,468L28,267Z" fill="#aacdf7" stroke="#aacdf7" stroke-width="1.51"/>
    <path d="M-89,28L-241,275L28,267Z" fill="#98c3f6" stroke="#98c3f6" stroke-width="1.51"/>
    <path d="M-329,880L-38,1077L17,880Z" fill="#94bdf3" stroke="#94bdf3" stroke-width="1.51"/>
    <path d="M-227,38L-241,275L-89,28Z" fill="#89bcf5" stroke="#89bcf5" stroke-width="1.51"/>
    <path d="M-228,1305L-69,1288L-38,1077Z" fill="#77acee" stroke="#77acee" stroke-width="1.51"/>
    <path d="M-308,1093L-228,1305L-38,1077Z" fill="#77aeef" stroke="#77aeef" stroke-width="1.51"/>
    <path d="M-329,880L-308,1093L-38,1077Z" fill="#85b4f0" stroke="#85b4f0" stroke-width="1.51"/>
    <path d="M-316,435L-227,597L-16,468Z" fill="#b3d1f8" stroke="#b3d1f8" stroke-width="1.51"/>
    <path d="M-241,275L-316,435L-16,468Z" fill="#a8cbf7" stroke="#a8cbf7" stroke-width="1.51"/>
    <path d="M-227,38L-89,28L-83,-220Z" fill="#7ab5f4" stroke="#7ab5f4" stroke-width="1.51"/>
    <path d="M-262,-326L-227,38L-83,-220Z" fill="#65adf2" stroke="#65adf2" stroke-width="1.51"/>
    <path d="M-316,435L-329,880L-227,597Z" fill="#a7caf6" stroke="#a7caf6" stroke-width="1.51"/>
    <path d="M-316,435L-241,275L-227,38Z" fill="#93c1f5" stroke="#93c1f5" stroke-width="1.51"/>
    <path d="M-262,-326L-316,435L-227,38Z" fill="#7bb5f3" stroke="#7bb5f3" stroke-width="1.51"/>
</svg>
